<svg version="1.1" id="Layer_1" xmlns="http://www.w3.org/2000/svg" xmlns:xlink="http://www.w3.org/1999/xlink" x="0px" y="0px"
	 width="100%" viewBox="0 0 3034 664" enable-background="new 0 0 3034 664" xml:space="preserve">

<path fill="#EE7054" opacity="1.000000" stroke="none" 
	d="
M2706.090088,593.249146 
	C2691.153809,595.418762 2676.280273,598.692322 2661.269287,599.542603 
	C2622.559326,601.735413 2584.787842,596.472046 2548.958496,580.987610 
	C2490.757568,555.834778 2451.113770,513.068420 2431.606689,452.810211 
	C2413.055176,395.504486 2413.337158,337.779541 2434.962646,281.284851 
	C2458.781982,219.059647 2503.132324,177.348877 2566.316406,156.004837 
	C2603.742432,143.362076 2642.192139,141.013824 2681.216064,145.694321 
	C2717.722656,150.072891 2751.380859,162.180542 2781.876709,183.584778 
	C2780.276367,191.314697 2778.312744,198.338074 2777.066650,205.486526 
	C2775.414307,214.965164 2774.549805,224.581451 2772.886475,234.057816 
	C2772.131836,238.359375 2769.736328,242.381088 2769.046387,246.683868 
	C2768.161621,252.204208 2769.541016,258.374084 2767.631348,263.382019 
	C2764.026123,272.837097 2765.348389,283.447388 2760.095947,292.359619 
	C2759.872314,292.738831 2760.026123,293.340546 2759.629883,293.827179 
	C2747.903564,291.388306 2736.658203,287.994141 2725.178223,286.726044 
	C2697.611328,283.680908 2670.908203,287.400879 2646.342773,301.076294 
	C2595.681396,329.278809 2592.601318,387.474640 2621.174316,422.017883 
	C2638.304688,442.727448 2661.635498,452.712128 2687.696289,455.838043 
	C2701.311768,457.471191 2715.222656,456.642426 2728.991211,457.352386 
	C2728.587891,462.552856 2729.345703,467.816772 2727.565186,472.000458 
	C2723.580566,481.364166 2726.065430,492.228638 2720.202637,500.988281 
	C2719.957031,501.354828 2720.075928,501.960938 2720.011719,502.453735 
	C2719.331299,507.655426 2718.679199,512.860962 2717.957764,518.056946 
	C2717.187500,523.602478 2716.602539,529.189941 2715.488281,534.667786 
	C2713.503174,544.427307 2711.073730,554.095947 2709.052979,563.848816 
	C2708.253174,567.709656 2709.147461,572.321533 2707.338379,575.487488 
	C2703.896240,581.510925 2703.470459,587.111267 2706.090088,593.249146 
z"/>
<path fill="#EE7550" opacity="1.000000" stroke="none" 
	d="
M2760.003906,293.838623 
	C2760.026123,293.340546 2759.872314,292.738831 2760.095947,292.359619 
	C2765.348389,283.447388 2764.026123,272.837097 2767.631348,263.382019 
	C2769.541016,258.374084 2768.161621,252.204208 2769.046387,246.683868 
	C2769.736328,242.381088 2772.131836,238.359375 2772.886475,234.057816 
	C2774.549805,224.581451 2775.414307,214.965164 2777.066650,205.486526 
	C2778.312744,198.338074 2780.276367,191.314697 2782.086914,183.832001 
	C2790.777100,190.243622 2799.390869,196.950195 2807.775879,203.931732 
	C2810.802002,206.451324 2813.278809,209.630463 2816.006592,212.508621 
	C2816.434082,212.335251 2816.861572,212.161865 2817.289062,211.988480 
	C2817.289062,193.872818 2817.289062,175.757156 2817.289062,157.231049 
	C2879.423096,157.231049 2940.809814,157.231049 3002.571289,157.231049 
	C3002.571289,300.169250 3002.571289,443.078735 3002.571289,586.411987 
	C2941.216309,586.411987 2879.840820,586.411987 2817.721680,586.411987 
	C2817.721680,568.015259 2817.721680,549.674377 2817.721680,531.333557 
	C2817.110596,530.967102 2816.499268,530.600647 2815.888184,530.234192 
	C2812.366211,534.158813 2809.122070,538.381897 2805.277344,541.959778 
	C2779.422607,566.020752 2749.093506,581.964050 2715.097656,591.137207 
	C2712.375732,591.871643 2709.633057,592.530090 2706.495117,593.236450 
	C2703.470459,587.111267 2703.896240,581.510925 2707.338379,575.487488 
	C2709.147461,572.321533 2708.253174,567.709656 2709.052979,563.848816 
	C2711.073730,554.095947 2713.503174,544.427307 2715.488281,534.667786 
	C2716.602539,529.189941 2717.187500,523.602478 2717.957764,518.056946 
	C2718.679199,512.860962 2719.331299,507.655426 2720.011719,502.453735 
	C2720.075928,501.960938 2719.957031,501.354828 2720.202637,500.988281 
	C2726.065430,492.228638 2723.580566,481.364166 2727.565186,472.000458 
	C2729.345703,467.816772 2728.587891,462.552856 2729.377930,457.229034 
	C2741.324219,455.288452 2752.456543,452.393951 2763.291992,448.085083 
	C2797.463623,434.495972 2821.001709,403.573425 2817.009521,364.177094 
	C2814.981201,344.159607 2807.100586,327.104462 2791.985840,313.503479 
	C2782.500244,304.967987 2771.538330,298.971344 2760.003906,293.838623 
z"/>
<path fill="#ED5E6E" opacity="1.000000" stroke="none" 
	d="
M896.834045,434.430786 
	C907.355408,429.967041 917.116577,424.388611 924.671082,415.545441 
	C935.081177,403.359406 939.911682,388.987000 940.109497,373.234161 
	C940.467346,344.745239 940.302673,316.249451 940.316406,287.756531 
	C940.336609,245.932968 940.360718,204.109329 940.256775,162.286026 
	C940.247192,158.431213 940.940613,156.684860 945.397156,156.695541 
	C1003.716492,156.835388 1062.036377,156.786514 1120.356079,156.798737 
	C1121.662109,156.799011 1122.968262,156.959641 1124.654053,157.070435 
	C1124.654053,300.142517 1124.654053,443.018555 1124.654053,586.551392 
	C1123.004272,586.638062 1121.257446,586.809570 1119.510620,586.809998 
	C1061.690796,586.824402 1003.870911,586.768066 946.051514,586.924805 
	C941.387390,586.937439 940.149963,585.586731 940.219604,581.022888 
	C940.476379,564.197449 940.328735,547.365723 940.310608,530.536316 
	C940.308716,528.804382 940.155518,527.072632 940.072510,525.340759 
	C939.547119,525.000854 939.021790,524.660950 938.496399,524.321045 
	C937.503174,525.797729 936.686768,527.438782 935.489929,528.726013 
	C921.008118,544.300110 905.045471,558.111023 886.630676,568.878845 
	C880.851440,572.258179 874.764771,575.111694 868.399963,577.858398 
	C868.040466,572.681885 866.821411,567.324646 868.534546,563.178894 
	C870.109985,559.366394 870.951782,555.875305 871.086304,551.925659 
	C871.141479,550.302856 871.840515,548.711182 872.141602,547.085876 
	C873.120544,541.802673 874.070007,536.513672 874.992432,531.220276 
	C875.500854,528.302673 875.041077,524.749084 876.567017,522.564209 
	C881.038635,516.161560 878.494202,508.463715 881.388672,501.660187 
	C883.637390,496.374573 883.044556,489.923309 884.083130,484.055328 
	C884.432678,482.080292 887.227539,479.529694 886.659912,478.569824 
	C883.723633,473.604645 888.309326,469.237579 887.189697,464.444183 
	C886.728821,462.470734 888.187988,460.041351 888.800110,457.826630 
	C889.518494,455.227722 890.687378,452.671692 890.906189,450.034454 
	C891.282715,445.498413 891.598389,441.169861 895.441833,437.918854 
	C896.285645,437.205109 896.389465,435.616486 896.834045,434.430786 
z"/>
<path fill="#EC547F" opacity="1.000000" stroke="none" 
	d="
M142.994354,586.598877 
	C132.838242,586.683899 122.682190,586.829041 112.525978,586.842285 
	C86.035095,586.876831 59.544140,586.853516 33.053215,586.853394 
	C31.242920,586.853394 29.432625,586.853455 27.059633,586.853455 
	C26.929716,584.762939 26.726490,583.018494 26.726355,581.274048 
	C26.712509,402.501953 26.722332,223.729843 26.657021,44.957760 
	C26.655663,41.241753 27.040300,39.202091 31.640896,39.212826 
	C90.120544,39.349293 148.600616,39.301872 207.080582,39.314686 
	C208.216751,39.314938 209.352875,39.477512 211.048981,39.607155 
	C211.048981,104.243820 211.048981,168.658737 210.627609,233.495712 
	C205.805069,231.590744 204.368866,232.335526 204.007736,237.204056 
	C203.640640,242.152969 203.420883,247.114777 202.945999,252.052597 
	C202.792618,253.647339 202.040314,255.185440 201.554047,256.746979 
	C200.705948,259.470428 199.658081,262.149445 199.048752,264.925018 
	C198.278732,268.432617 197.911530,272.026672 197.283188,275.567932 
	C196.572693,279.572327 195.489120,283.531311 195.077545,287.562103 
	C194.664505,291.607239 195.870483,295.934265 191.794724,298.993317 
	C191.114243,299.504089 191.172562,301.122009 191.060455,302.245392 
	C190.640610,306.453461 190.525558,310.706573 189.850189,314.870422 
	C189.179703,319.003967 187.605804,323.005890 187.102463,327.147491 
	C186.593628,331.334290 187.944733,335.877686 183.723969,339.027588 
	C183.216370,339.406464 183.108780,340.539886 183.096344,341.328003 
	C183.018906,346.234558 183.106934,351.145264 182.944305,356.048065 
	C182.896790,357.480652 182.648346,359.338074 181.737411,360.231354 
	C178.734116,363.176605 178.890930,366.728546 178.973663,370.405487 
	C179.018250,372.387054 179.581696,375.059326 178.554611,376.242126 
	C173.878571,381.627014 176.008850,388.112579 174.993927,394.057831 
	C174.636581,396.151093 174.889313,398.840637 173.676682,400.196381 
	C170.890076,403.311920 171.076782,406.748047 170.937851,410.409637 
	C170.761246,415.064301 171.370682,420.353333 169.361801,424.168701 
	C167.233704,428.210480 167.113281,431.927795 166.985641,435.995209 
	C166.959839,436.817657 167.028473,437.776398 166.644791,438.433716 
	C162.686691,445.214630 163.115967,452.692719 162.926239,460.113739 
	C162.883286,461.793610 161.934631,463.457062 161.365234,465.115143 
	C160.595901,467.355530 159.528076,469.529816 159.058029,471.828491 
	C158.239746,475.829987 157.826385,479.912537 157.157990,483.946960 
	C156.493332,487.958710 155.473434,491.928101 155.071655,495.962158 
	C154.684113,499.853149 155.782852,503.997559 151.852081,506.913300 
	C151.161743,507.425385 151.181427,509.027863 151.057632,510.147125 
	C150.558868,514.656738 150.326416,519.204834 149.620377,523.679565 
	C149.010986,527.541626 147.534714,531.282898 147.097031,535.151733 
	C146.622543,539.346008 147.941513,543.883179 143.720840,547.032104 
	C143.213776,547.410400 143.099716,548.546875 143.096405,549.333191 
	C143.063797,557.090088 144.904770,565.140747 139.256592,571.978394 
	C138.823441,572.502808 139.173599,573.613464 138.984329,574.409912 
	C137.820389,579.308228 140.257248,582.997986 142.994354,586.598877 
z"/>
<path fill="#ED6464" opacity="1.000000" stroke="none" 
	d="
M1428.143311,344.994629 
	C1436.139404,364.744659 1444.143677,384.491364 1452.128418,404.245972 
	C1456.795044,415.791077 1461.430420,427.348755 1466.541138,440.047150 
	C1467.791992,437.172119 1468.615723,435.417145 1469.329346,433.618469 
	C1505.080566,343.509735 1540.865723,253.414368 1576.447754,163.238800 
	C1578.407349,158.272461 1580.789551,156.633728 1586.146729,156.654037 
	C1642.967529,156.869659 1699.789551,156.789108 1756.611206,156.790085 
	C1758.588745,156.790131 1760.566284,156.790100 1763.392578,156.790100 
	C1762.630859,158.903610 1762.176636,160.402771 1761.562744,161.833374 
	C1701.460205,301.906342 1641.333130,441.968750 1581.306030,582.074036 
	C1579.854126,585.463013 1578.176147,586.900513 1574.367676,586.894043 
	C1510.547607,586.785461 1446.727417,586.814026 1382.907227,586.807129 
	C1382.242310,586.807068 1381.577393,586.740662 1380.458984,586.159302 
	C1381.002930,581.075500 1382.231445,576.573914 1382.950195,571.992249 
	C1384.537476,561.873169 1385.852783,551.711670 1387.321655,541.573669 
	C1387.510498,540.270020 1387.542969,538.597961 1388.345581,537.788574 
	C1391.895508,534.208862 1390.423340,529.726013 1391.090698,525.590271 
	C1392.615112,516.141663 1394.626343,506.771759 1396.434448,497.368835 
	C1397.295898,492.889191 1398.083618,488.394409 1399.012817,483.928955 
	C1400.894775,474.884460 1402.877197,465.860809 1404.759766,456.816406 
	C1405.362183,453.921967 1405.660889,450.962341 1406.308594,448.079712 
	C1407.684937,441.954041 1405.858032,435.055115 1410.691772,429.760315 
	C1408.256836,425.397430 1411.418945,421.371582 1411.653931,417.164398 
	C1411.899780,412.765808 1414.190796,408.522766 1414.919556,404.101593 
	C1416.585327,393.996704 1417.828491,383.822449 1419.285278,373.682373 
	C1419.472534,372.377747 1419.499268,370.712219 1420.297119,369.890533 
	C1424.077148,365.997864 1422.808105,361.219330 1422.989868,356.690857 
	C1423.069824,354.696167 1422.829346,352.667084 1423.108765,350.707031 
	C1423.522339,347.807098 1424.445557,345.111450 1428.143311,344.994629 
z"/>
<path fill="#EC5974" opacity="1.000000" stroke="none" 
	d="
M744.068176,598.675964 
	C697.113464,594.798340 655.557495,578.966125 623.070984,543.489868 
	C600.123230,518.430237 586.929688,488.497681 581.361145,455.300568 
	C579.086975,441.742615 578.037415,427.829620 577.988220,414.072571 
	C577.688843,330.266144 577.855164,246.458115 577.781555,162.650696 
	C577.778198,158.830429 577.974976,156.657715 582.945740,156.673096 
	C641.093933,156.853165 699.242859,156.785889 757.391602,156.794449 
	C758.707642,156.794647 760.023682,156.917999 762.211914,157.027588 
	C762.211914,159.216904 762.211853,161.296844 762.211914,163.376785 
	C762.212830,232.522110 762.220703,301.667450 762.210144,370.812775 
	C762.207336,389.075928 767.532959,405.236389 780.670776,418.913849 
	C779.585327,420.065155 777.718628,420.648590 777.733826,421.177856 
	C777.897339,426.854614 774.241882,431.401733 773.235168,436.514160 
	C771.112671,447.292877 770.308228,458.330017 768.902466,469.253326 
	C768.805420,470.007690 768.390381,471.081055 767.814026,471.354523 
	C764.469727,472.941589 764.989136,475.878082 764.997131,478.678833 
	C765.008545,482.674927 765.064941,486.672699 764.965515,490.666351 
	C764.929565,492.112213 764.984802,494.370911 764.169373,494.851349 
	C759.834900,497.405029 761.452454,501.473145 760.928833,505.070435 
	C760.496277,508.042603 759.438110,510.923767 758.657166,513.845276 
	C758.195007,513.794495 757.732910,513.743652 757.270752,513.692871 
	C758.208862,514.938110 759.147034,516.183289 760.180359,517.554810 
	C759.118469,518.691711 757.704041,519.509766 757.439331,520.605469 
	C756.003662,526.548340 758.468628,533.003723 753.653076,538.738770 
	C751.754272,541.000183 753.192566,546.007324 752.980652,549.756714 
	C752.749084,553.852051 754.507141,558.544983 749.581299,561.346619 
	C749.104187,561.617981 749.132507,562.865601 749.017639,563.673035 
	C747.358704,575.339355 745.715332,587.007935 744.068176,598.675964 
z"/>
<path fill="#EE6D58" opacity="1.000000" stroke="none" 
	d="
M2246.000000,157.015442 
	C2278.489502,156.948517 2310.978760,156.880875 2343.468262,156.815613 
	C2347.080566,156.808350 2350.692871,156.814621 2354.866211,156.814621 
	C2354.866211,159.231415 2354.866211,161.018173 2354.866211,162.804916 
	C2354.867188,301.946991 2354.868652,441.089050 2354.868408,580.231140 
	C2354.868408,586.825745 2354.862305,586.831177 2348.475098,586.831299 
	C2290.818604,586.832581 2233.162354,586.831665 2175.505859,586.831421 
	C2173.704102,586.831421 2171.902100,586.831482 2169.272217,586.831482 
	C2169.272217,568.097778 2169.272217,549.833679 2169.530762,530.938965 
	C2170.468262,532.428955 2171.147461,534.549622 2171.826416,536.670288 
	C2172.229492,536.768982 2172.632568,536.867676 2173.035645,536.966431 
	C2174.010986,534.687927 2175.376465,532.491821 2175.878418,530.113464 
	C2176.851562,525.499939 2177.272461,520.772644 2178.052490,516.114380 
	C2178.587402,512.918396 2179.652100,509.785553 2179.924561,506.577332 
	C2180.296875,502.197540 2179.405518,497.784363 2182.728516,493.850616 
	C2184.006348,492.337799 2183.721436,489.434174 2183.971924,487.144836 
	C2184.205566,485.007294 2183.990967,482.807678 2184.348633,480.699036 
	C2185.470459,474.086731 2186.762939,467.503235 2188.005615,460.911652 
	C2188.276123,459.476898 2188.580078,458.046356 2188.927734,456.628510 
	C2189.935791,452.520844 2191.197754,448.460388 2191.935547,444.306091 
	C2192.635498,440.363556 2192.568359,436.284729 2193.270020,432.342712 
	C2193.855713,429.053497 2195.381348,425.927460 2195.923828,422.635742 
	C2196.677734,418.060760 2196.723145,413.371887 2197.406006,408.781525 
	C2198.044922,404.487152 2199.128662,400.259491 2199.992188,395.997498 
	C2200.123291,395.351501 2199.868896,394.467957 2200.218506,394.049805 
	C2205.485840,387.747040 2203.641113,380.200775 2204.030029,373.037262 
	C2204.108398,371.592285 2204.495117,370.147369 2204.874268,368.738708 
	C2205.876709,365.014252 2207.001953,361.322479 2207.977051,357.591156 
	C2208.387207,356.021576 2208.464600,354.367493 2208.828125,352.782776 
	C2209.847900,348.339630 2211.182861,343.952576 2211.915283,339.465332 
	C2212.418945,336.379120 2210.833252,332.035370 2212.424805,330.210968 
	C2217.708984,324.154205 2215.178223,316.524017 2217.722412,309.922882 
	C2220.975098,301.484100 2218.645752,291.596252 2223.603271,283.251648 
	C2224.573242,281.618988 2223.883789,279.014282 2224.009033,276.860840 
	C2224.095215,275.377991 2224.232178,273.896057 2224.407471,272.420959 
	C2224.664062,270.256958 2224.975098,268.099426 2225.447510,264.553772 
	C2225.961670,263.104980 2227.336426,260.304504 2227.926270,257.347351 
	C2229.183105,251.047318 2229.686279,244.585419 2231.140869,238.339432 
	C2232.743164,231.460052 2232.773193,224.280258 2235.728516,217.613388 
	C2236.922852,214.918808 2236.207031,211.405518 2236.513672,208.279846 
	C2236.722900,206.147934 2237.197510,204.042084 2237.553467,201.924591 
	C2237.704834,199.556854 2239.719238,197.291473 2239.614258,195.128998 
	C2239.304932,188.760315 2241.837891,183.243988 2243.657471,177.477615 
	C2243.902588,176.700836 2243.901855,175.843994 2243.993652,175.021835 
	C2244.665283,169.020035 2245.332031,163.017654 2246.000000,157.015442 
z"/>
<path fill="#ED6168" opacity="1.000000" stroke="none" 
	d="
M1428.130493,344.612427 
	C1424.445557,345.111450 1423.522339,347.807098 1423.108765,350.707031 
	C1422.829346,352.667084 1423.069824,354.696167 1422.989868,356.690857 
	C1422.808105,361.219330 1424.077148,365.997864 1420.297119,369.890533 
	C1419.499268,370.712219 1419.472534,372.377747 1419.285278,373.682373 
	C1417.828491,383.822449 1416.585327,393.996704 1414.919556,404.101593 
	C1414.190796,408.522766 1411.899780,412.765808 1411.653931,417.164398 
	C1411.418945,421.371582 1408.256836,425.397430 1410.691772,429.760315 
	C1405.858032,435.055115 1407.684937,441.954041 1406.308594,448.079712 
	C1405.660889,450.962341 1405.362183,453.921967 1404.759766,456.816406 
	C1402.877197,465.860809 1400.894775,474.884460 1399.012817,483.928955 
	C1398.083618,488.394409 1397.295898,492.889191 1396.434448,497.368835 
	C1394.626343,506.771759 1392.615112,516.141663 1391.090698,525.590271 
	C1390.423340,529.726013 1391.895508,534.208862 1388.345581,537.788574 
	C1387.542969,538.597961 1387.510498,540.270020 1387.321655,541.573669 
	C1385.852783,551.711670 1384.537476,561.873169 1382.950195,571.992249 
	C1382.231445,576.573914 1381.002930,581.075500 1380.013184,586.018799 
	C1372.038086,586.552979 1364.048706,586.887756 1356.078369,586.631165 
	C1354.546143,586.581787 1352.406250,584.505981 1351.696777,582.867126 
	C1335.084717,544.497925 1318.630005,506.060608 1302.148926,467.634705 
	C1269.646362,391.855164 1237.149780,316.073120 1204.641602,240.295990 
	C1193.214355,213.658920 1181.758789,187.034027 1170.326782,160.399048 
	C1169.944580,159.508591 1169.677612,158.568695 1169.056519,156.793335 
	C1171.199219,156.793335 1172.768433,156.793365 1174.337769,156.793320 
	C1232.331909,156.791428 1290.326050,156.809616 1348.320068,156.735260 
	C1351.631714,156.731018 1353.662354,157.266785 1355.082397,160.843124 
	C1379.243042,221.689957 1403.574341,282.468994 1427.862671,343.265106 
	C1427.985229,343.571808 1428.034302,343.907867 1428.130493,344.612427 
z"/>
<path fill="#ED685E" opacity="1.000000" stroke="none" 
	d="
M1888.940430,575.230042 
	C1871.552368,567.516663 1856.284302,556.550964 1842.244507,543.928955 
	C1803.869385,509.429199 1782.234131,465.850281 1774.259521,415.342072 
	C1767.151123,370.319336 1769.662231,325.859558 1786.078003,282.970276 
	C1810.250732,219.814346 1854.595581,177.137146 1918.893188,156.014435 
	C1933.802246,151.116623 1949.631470,149.020325 1965.495850,146.093323 
	C1965.180542,150.909012 1964.549683,155.298447 1963.578979,159.611404 
	C1963.008545,162.145767 1961.377441,164.507553 1961.129761,167.035736 
	C1960.455566,173.918365 1960.806396,180.639908 1957.725098,187.464050 
	C1954.994141,193.511948 1955.149536,200.859299 1954.005859,207.628830 
	C1952.948608,213.887024 1953.849243,220.423782 1950.278442,226.355392 
	C1948.877563,228.682480 1949.336914,232.145615 1949.012207,235.098312 
	C1948.813843,236.903641 1948.972778,238.777573 1948.564209,240.525528 
	C1946.451660,249.564728 1943.879761,258.509399 1942.107422,267.611481 
	C1940.514404,275.792175 1941.790161,284.474945 1937.809082,292.277496 
	C1937.300537,293.274261 1937.186157,294.501007 1937.022461,295.640350 
	C1935.626465,305.366913 1934.275635,315.099976 1932.859619,324.823578 
	C1932.743652,325.620056 1932.155273,326.336517 1931.941650,327.131866 
	C1930.931396,330.895081 1929.718628,334.629486 1929.072998,338.457672 
	C1928.455811,342.117310 1928.718994,345.925140 1928.105225,349.585632 
	C1927.329590,354.210052 1926.018921,358.742767 1925.022949,363.333252 
	C1924.710449,364.772949 1924.749512,366.285858 1924.488892,367.740326 
	C1923.351562,374.088165 1922.168823,380.427917 1920.988159,386.767883 
	C1920.780029,387.885742 1920.541626,389.000977 1920.250854,390.099884 
	C1919.182373,394.135864 1917.991821,398.142487 1917.044067,402.206024 
	C1916.635986,403.954803 1916.904541,405.857147 1916.531860,407.619141 
	C1914.409180,417.657471 1912.007080,427.640076 1910.066895,437.712341 
	C1908.977905,443.366089 1909.019287,449.249176 1907.784790,454.860291 
	C1906.358643,461.342407 1904.078369,467.635864 1902.208496,474.022766 
	C1902.081787,474.455505 1902.344360,474.987457 1902.328979,475.470154 
	C1902.268555,477.357727 1902.259155,479.253540 1902.062134,481.128571 
	C1901.787109,483.747589 1901.394165,486.355896 1900.989502,488.959137 
	C1900.662964,491.058960 1900.343628,493.168457 1899.844971,495.231079 
	C1898.967529,498.861084 1897.681519,502.413330 1897.075439,506.082153 
	C1896.443726,509.906158 1896.872925,513.933411 1896.023315,517.687439 
	C1894.308350,525.264404 1891.673340,532.641907 1890.131592,540.246399 
	C1889.107666,545.296326 1889.385254,550.602783 1888.928101,555.780945 
	C1888.834106,556.844788 1888.253418,557.999023 1887.573975,558.855164 
	C1884.351807,562.915588 1884.418579,566.991394 1887.105347,571.268066 
	C1887.873413,572.490479 1888.337158,573.904114 1888.940430,575.230042 
z"/>
<path fill="#ED6A5B" opacity="1.000000" stroke="none" 
	d="
M2245.537109,156.934723 
	C2245.332031,163.017654 2244.665283,169.020035 2243.993652,175.021835 
	C2243.901855,175.843994 2243.902588,176.700836 2243.657471,177.477615 
	C2241.837891,183.243988 2239.304932,188.760315 2239.614258,195.128998 
	C2239.719238,197.291473 2237.704834,199.556854 2237.553467,201.924591 
	C2237.197510,204.042084 2236.722900,206.147934 2236.513672,208.279846 
	C2236.207031,211.405518 2236.922852,214.918808 2235.728516,217.613388 
	C2232.773193,224.280258 2232.743164,231.460052 2231.140869,238.339432 
	C2229.686279,244.585419 2229.183105,251.047318 2227.926270,257.347351 
	C2227.336426,260.304504 2225.961670,263.104980 2225.447510,264.553772 
	C2224.975098,268.099426 2224.664062,270.256958 2224.407471,272.420959 
	C2224.232178,273.896057 2224.095215,275.377991 2224.009033,276.860840 
	C2223.883789,279.014282 2224.573242,281.618988 2223.603271,283.251648 
	C2218.645752,291.596252 2220.975098,301.484100 2217.722412,309.922882 
	C2215.178223,316.524017 2217.708984,324.154205 2212.424805,330.210968 
	C2210.833252,332.035370 2212.418945,336.379120 2211.915283,339.465332 
	C2211.182861,343.952576 2209.847900,348.339630 2208.828125,352.782776 
	C2208.464600,354.367493 2208.387207,356.021576 2207.977051,357.591156 
	C2207.001953,361.322479 2205.876709,365.014252 2204.874268,368.738708 
	C2204.495117,370.147369 2204.108398,371.592285 2204.030029,373.037262 
	C2203.641113,380.200775 2205.485840,387.747040 2200.218506,394.049805 
	C2199.868896,394.467957 2200.123291,395.351501 2199.992188,395.997498 
	C2199.128662,400.259491 2198.044922,404.487152 2197.406006,408.781525 
	C2196.723145,413.371887 2196.677734,418.060760 2195.923828,422.635742 
	C2195.381348,425.927460 2193.855713,429.053497 2193.270020,432.342712 
	C2192.568359,436.284729 2192.635498,440.363556 2191.935547,444.306091 
	C2191.197754,448.460388 2189.935791,452.520844 2188.927734,456.628510 
	C2188.580078,458.046356 2188.276123,459.476898 2188.005615,460.911652 
	C2186.762939,467.503235 2185.470459,474.086731 2184.348633,480.699036 
	C2183.990967,482.807678 2184.205566,485.007294 2183.971924,487.144836 
	C2183.721436,489.434174 2184.006348,492.337799 2182.728516,493.850616 
	C2179.405518,497.784363 2180.296875,502.197540 2179.924561,506.577332 
	C2179.652100,509.785553 2178.587402,512.918396 2178.052490,516.114380 
	C2177.272461,520.772644 2176.851562,525.499939 2175.878418,530.113464 
	C2175.376465,532.491821 2174.010986,534.687927 2173.035645,536.966431 
	C2172.632568,536.867676 2172.229492,536.768982 2171.826416,536.670288 
	C2171.147461,534.549622 2170.468262,532.428955 2169.522461,530.444336 
	C2158.971924,539.526306 2149.171143,549.113647 2138.311035,557.294312 
	C2109.100098,579.298035 2075.741211,591.543640 2039.776001,596.964600 
	C2032.222290,598.103210 2024.556763,598.500244 2016.424072,598.807251 
	C2014.884521,597.622559 2013.968384,596.529724 2012.824097,596.176575 
	C2008.252319,594.765564 2006.303223,588.978760 2008.850708,584.765198 
	C2009.948364,582.949768 2010.559570,580.733948 2010.951294,578.618469 
	C2012.056641,572.650818 2012.756592,566.605469 2013.948975,560.657471 
	C2015.223755,554.299622 2017.114990,548.062195 2018.304565,541.691406 
	C2019.656250,534.453491 2020.503662,527.122253 2021.622803,519.839661 
	C2022.053345,517.038025 2022.764893,514.275208 2023.107544,511.465363 
	C2023.678101,506.785919 2023.544800,501.961121 2024.629395,497.417542 
	C2026.327026,490.307068 2029.465088,483.499847 2030.741821,476.341064 
	C2031.981445,469.390594 2031.644653,462.159027 2032.415039,455.020477 
	C2046.991943,457.275208 2061.146240,458.365662 2075.555664,457.144958 
	C2093.398682,455.633453 2110.311768,451.324432 2126.118408,442.946625 
	C2159.352783,425.331787 2175.216797,390.558167 2167.040527,353.753510 
	C2161.336670,328.076874 2145.411133,310.731964 2122.617432,298.974823 
	C2108.924805,291.912170 2094.181396,288.415527 2078.931152,286.250977 
	C2078.220947,286.046631 2077.578125,286.102081 2076.501953,286.201416 
	C2074.045654,286.076202 2072.022949,285.907104 2069.992676,285.379944 
	C2069.322754,281.800964 2068.054443,278.555939 2068.181396,275.366394 
	C2068.290039,272.631683 2070.427979,270.036194 2070.915771,267.247375 
	C2072.612061,257.554291 2073.780762,247.767487 2075.547852,238.088882 
	C2076.627441,232.175629 2078.698486,226.446533 2079.847168,220.541946 
	C2081.191162,213.634125 2082.012939,206.624847 2083.067871,199.660599 
	C2083.758789,195.099258 2083.424805,190.027328 2085.373291,186.085419 
	C2089.504639,177.727646 2087.267334,168.543152 2089.998535,160.139114 
	C2119.525879,172.276428 2145.911377,189.172195 2167.771240,212.922104 
	C2168.190186,212.605347 2168.609131,212.288605 2169.028076,211.971848 
	C2169.123047,210.246094 2169.297852,208.520447 2169.300293,206.794556 
	C2169.321777,191.823959 2169.414551,176.852173 2169.241943,161.883560 
	C2169.198486,158.108429 2170.113281,156.685242 2174.214600,156.720657 
	C2197.833252,156.924606 2221.453857,156.840485 2245.537109,156.934723 
z"/>
<path fill="#ED695D" opacity="1.000000" stroke="none" 
	d="
M2089.690430,159.940796 
	C2087.267334,168.543152 2089.504639,177.727646 2085.373291,186.085419 
	C2083.424805,190.027328 2083.758789,195.099258 2083.067871,199.660599 
	C2082.012939,206.624847 2081.191162,213.634125 2079.847168,220.541946 
	C2078.698486,226.446533 2076.627441,232.175629 2075.547852,238.088882 
	C2073.780762,247.767487 2072.612061,257.554291 2070.915771,267.247375 
	C2070.427979,270.036194 2068.290039,272.631683 2068.181396,275.366394 
	C2068.054443,278.555939 2069.322754,281.800964 2069.526855,285.431091 
	C2060.426758,286.214661 2051.705811,285.974030 2043.160034,287.083923 
	C2021.483643,289.899170 2001.308716,296.241333 1983.906250,310.655151 
	C1941.193237,346.032440 1946.978271,412.818390 1994.916260,440.750153 
	C2006.576294,447.544037 2019.065186,451.774139 2032.000000,455.050873 
	C2031.644653,462.159027 2031.981445,469.390594 2030.741821,476.341064 
	C2029.465088,483.499847 2026.327026,490.307068 2024.629395,497.417542 
	C2023.544800,501.961121 2023.678101,506.785919 2023.107544,511.465363 
	C2022.764893,514.275208 2022.053345,517.038025 2021.622803,519.839661 
	C2020.503662,527.122253 2019.656250,534.453491 2018.304565,541.691406 
	C2017.114990,548.062195 2015.223755,554.299622 2013.948975,560.657471 
	C2012.756592,566.605469 2012.056641,572.650818 2010.951294,578.618469 
	C2010.559570,580.733948 2009.948364,582.949768 2008.850708,584.765198 
	C2006.303223,588.978760 2008.252319,594.765564 2012.824097,596.176575 
	C2013.968384,596.529724 2014.884521,597.622559 2015.968506,598.749512 
	C2006.076294,599.360046 1996.105103,600.075562 1986.169067,599.740723 
	C1959.306885,598.835449 1933.242920,593.548401 1908.110718,583.980713 
	C1901.746094,581.557739 1895.623901,578.498108 1889.165283,575.480530 
	C1888.337158,573.904114 1887.873413,572.490479 1887.105347,571.268066 
	C1884.418579,566.991394 1884.351807,562.915588 1887.573975,558.855164 
	C1888.253418,557.999023 1888.834106,556.844788 1888.928101,555.780945 
	C1889.385254,550.602783 1889.107666,545.296326 1890.131592,540.246399 
	C1891.673340,532.641907 1894.308350,525.264404 1896.023315,517.687439 
	C1896.872925,513.933411 1896.443726,509.906158 1897.075439,506.082153 
	C1897.681519,502.413330 1898.967529,498.861084 1899.844971,495.231079 
	C1900.343628,493.168457 1900.662964,491.058960 1900.989502,488.959137 
	C1901.394165,486.355896 1901.787109,483.747589 1902.062134,481.128571 
	C1902.259155,479.253540 1902.268555,477.357727 1902.328979,475.470154 
	C1902.344360,474.987457 1902.081787,474.455505 1902.208496,474.022766 
	C1904.078369,467.635864 1906.358643,461.342407 1907.784790,454.860291 
	C1909.019287,449.249176 1908.977905,443.366089 1910.066895,437.712341 
	C1912.007080,427.640076 1914.409180,417.657471 1916.531860,407.619141 
	C1916.904541,405.857147 1916.635986,403.954803 1917.044067,402.206024 
	C1917.991821,398.142487 1919.182373,394.135864 1920.250854,390.099884 
	C1920.541626,389.000977 1920.780029,387.885742 1920.988159,386.767883 
	C1922.168823,380.427917 1923.351562,374.088165 1924.488892,367.740326 
	C1924.749512,366.285858 1924.710449,364.772949 1925.022949,363.333252 
	C1926.018921,358.742767 1927.329590,354.210052 1928.105225,349.585632 
	C1928.718994,345.925140 1928.455811,342.117310 1929.072998,338.457672 
	C1929.718628,334.629486 1930.931396,330.895081 1931.941650,327.131866 
	C1932.155273,326.336517 1932.743652,325.620056 1932.859619,324.823578 
	C1934.275635,315.099976 1935.626465,305.366913 1937.022461,295.640350 
	C1937.186157,294.501007 1937.300537,293.274261 1937.809082,292.277496 
	C1941.790161,284.474945 1940.514404,275.792175 1942.107422,267.611481 
	C1943.879761,258.509399 1946.451660,249.564728 1948.564209,240.525528 
	C1948.972778,238.777573 1948.813843,236.903641 1949.012207,235.098312 
	C1949.336914,232.145615 1948.877563,228.682480 1950.278442,226.355392 
	C1953.849243,220.423782 1952.948608,213.887024 1954.005859,207.628830 
	C1955.149536,200.859299 1954.994141,193.511948 1957.725098,187.464050 
	C1960.806396,180.639908 1960.455566,173.918365 1961.129761,167.035736 
	C1961.377441,164.507553 1963.008545,162.145767 1963.578979,159.611404 
	C1964.549683,155.298447 1965.180542,150.909012 1965.938232,146.106598 
	C1982.323242,145.101608 1998.750854,143.675598 2015.118774,144.181564 
	C2040.681763,144.971756 2065.549805,150.154160 2089.690430,159.940796 
z"/>
<path fill="#EC567B" opacity="1.000000" stroke="none" 
	d="
M143.454742,586.694153 
	C140.257248,582.997986 137.820389,579.308228 138.984329,574.409912 
	C139.173599,573.613464 138.823441,572.502808 139.256592,571.978394 
	C144.904770,565.140747 143.063797,557.090088 143.096405,549.333191 
	C143.099716,548.546875 143.213776,547.410400 143.720840,547.032104 
	C147.941513,543.883179 146.622543,539.346008 147.097031,535.151733 
	C147.534714,531.282898 149.010986,527.541626 149.620377,523.679565 
	C150.326416,519.204834 150.558868,514.656738 151.057632,510.147125 
	C151.181427,509.027863 151.161743,507.425385 151.852081,506.913300 
	C155.782852,503.997559 154.684113,499.853149 155.071655,495.962158 
	C155.473434,491.928101 156.493332,487.958710 157.157990,483.946960 
	C157.826385,479.912537 158.239746,475.829987 159.058029,471.828491 
	C159.528076,469.529816 160.595901,467.355530 161.365234,465.115143 
	C161.934631,463.457062 162.883286,461.793610 162.926239,460.113739 
	C163.115967,452.692719 162.686691,445.214630 166.644791,438.433716 
	C167.028473,437.776398 166.959839,436.817657 166.985641,435.995209 
	C167.113281,431.927795 167.233704,428.210480 169.361801,424.168701 
	C171.370682,420.353333 170.761246,415.064301 170.937851,410.409637 
	C171.076782,406.748047 170.890076,403.311920 173.676682,400.196381 
	C174.889313,398.840637 174.636581,396.151093 174.993927,394.057831 
	C176.008850,388.112579 173.878571,381.627014 178.554611,376.242126 
	C179.581696,375.059326 179.018250,372.387054 178.973663,370.405487 
	C178.890930,366.728546 178.734116,363.176605 181.737411,360.231354 
	C182.648346,359.338074 182.896790,357.480652 182.944305,356.048065 
	C183.106934,351.145264 183.018906,346.234558 183.096344,341.328003 
	C183.108780,340.539886 183.216370,339.406464 183.723969,339.027588 
	C187.944733,335.877686 186.593628,331.334290 187.102463,327.147491 
	C187.605804,323.005890 189.179703,319.003967 189.850189,314.870422 
	C190.525558,310.706573 190.640610,306.453461 191.060455,302.245392 
	C191.172562,301.122009 191.114243,299.504089 191.794724,298.993317 
	C195.870483,295.934265 194.664505,291.607239 195.077545,287.562103 
	C195.489120,283.531311 196.572693,279.572327 197.283188,275.567932 
	C197.911530,272.026672 198.278732,268.432617 199.048752,264.925018 
	C199.658081,262.149445 200.705948,259.470428 201.554047,256.746979 
	C202.040314,255.185440 202.792618,253.647339 202.945999,252.052597 
	C203.420883,247.114777 203.640640,242.152969 204.007736,237.204056 
	C204.368866,232.335526 205.805069,231.590744 210.548431,233.958557 
	C210.957275,235.994431 211.081772,237.989517 211.082138,239.984619 
	C211.092697,298.476776 211.090897,356.968903 211.091095,415.461060 
	C211.091095,417.439178 211.091095,419.417267 211.091095,422.436310 
	C268.990753,422.436310 326.544739,422.436310 384.530487,422.918610 
	C383.968262,427.140900 382.682495,430.833069 382.059021,434.633820 
	C381.380096,438.772186 382.458191,443.578491 380.721497,447.076416 
	C377.971283,452.615570 376.330688,457.975372 376.943298,464.072845 
	C376.990051,464.538116 376.744354,465.036713 376.616547,465.514984 
	C375.424316,469.978058 373.881195,474.381592 373.116425,478.916473 
	C372.039032,485.304962 372.590515,492.157959 370.504913,498.135223 
	C368.249573,504.598846 371.068329,512.351196 365.277435,517.770020 
	C364.910919,518.112915 365.104980,519.044556 365.019745,519.699951 
	C363.619751,530.465576 362.223297,541.231750 360.792206,551.993225 
	C360.731232,552.451843 360.427094,552.947021 360.096405,553.290588 
	C354.871674,558.718384 358.454498,565.845581 356.503571,571.915222 
	C355.847412,573.956726 356.186401,576.476257 355.125092,578.192627 
	C353.504547,580.813232 354.190582,581.996582 356.537384,583.299622 
	C358.138153,584.188538 359.512421,585.485291 360.987946,586.599731 
	C349.171356,586.684326 337.354828,586.819885 325.538116,586.842163 
	C304.555328,586.881714 283.571930,586.784119 262.589996,586.924377 
	C259.333038,586.946106 257.530121,586.063538 256.085388,582.993835 
	C241.560867,552.132385 226.877167,521.345764 212.077637,489.927307 
	C211.479538,489.056671 211.042023,488.796844 210.604507,488.537048 
	C210.743774,489.028381 210.883057,489.519714 211.022324,490.011047 
	C211.022324,522.052856 211.022324,554.094666 211.022324,586.789429 
	C188.344421,586.789429 166.129791,586.789429 143.454742,586.694153 
z"/>
<path fill="#EC5777" opacity="1.000000" stroke="none" 
	d="
M361.449036,586.694397 
	C359.512421,585.485291 358.138153,584.188538 356.537384,583.299622 
	C354.190582,581.996582 353.504547,580.813232 355.125092,578.192627 
	C356.186401,576.476257 355.847412,573.956726 356.503571,571.915222 
	C358.454498,565.845581 354.871674,558.718384 360.096405,553.290588 
	C360.427094,552.947021 360.731232,552.451843 360.792206,551.993225 
	C362.223297,541.231750 363.619751,530.465576 365.019745,519.699951 
	C365.104980,519.044556 364.910919,518.112915 365.277435,517.770020 
	C371.068329,512.351196 368.249573,504.598846 370.504913,498.135223 
	C372.590515,492.157959 372.039032,485.304962 373.116425,478.916473 
	C373.881195,474.381592 375.424316,469.978058 376.616547,465.514984 
	C376.744354,465.036713 376.990051,464.538116 376.943298,464.072845 
	C376.330688,457.975372 377.971283,452.615570 380.721497,447.076416 
	C382.458191,443.578491 381.380096,438.772186 382.059021,434.633820 
	C382.682495,430.833069 383.968262,427.140900 384.969116,423.076965 
	C386.787292,422.605743 388.598572,422.330963 390.409943,422.329926 
	C433.033020,422.305542 475.656097,422.310699 518.279175,422.310455 
	C522.930237,422.310425 527.581299,422.310486 532.677795,422.310486 
	C532.677795,477.355774 532.677795,531.812256 532.677795,586.789062 
	C475.691162,586.789062 418.800659,586.789062 361.449036,586.694397 
z"/>
<path fill="#EC5B70" opacity="1.000000" stroke="none" 
	d="
M744.434082,598.796326 
	C745.715332,587.007935 747.358704,575.339355 749.017639,563.673035 
	C749.132507,562.865601 749.104187,561.617981 749.581299,561.346619 
	C754.507141,558.544983 752.749084,553.852051 752.980652,549.756714 
	C753.192566,546.007324 751.754272,541.000183 753.653076,538.738770 
	C758.468628,533.003723 756.003662,526.548340 757.439331,520.605469 
	C757.704041,519.509766 759.118469,518.691711 760.180359,517.554810 
	C759.147034,516.183289 758.208862,514.938110 757.270752,513.692871 
	C757.732910,513.743652 758.195007,513.794495 758.657166,513.845276 
	C759.438110,510.923767 760.496277,508.042603 760.928833,505.070435 
	C761.452454,501.473145 759.834900,497.405029 764.169373,494.851349 
	C764.984802,494.370911 764.929565,492.112213 764.965515,490.666351 
	C765.064941,486.672699 765.008545,482.674927 764.997131,478.678833 
	C764.989136,475.878082 764.469727,472.941589 767.814026,471.354523 
	C768.390381,471.081055 768.805420,470.007690 768.902466,469.253326 
	C770.308228,458.330017 771.112671,447.292877 773.235168,436.514160 
	C774.241882,431.401733 777.897339,426.854614 777.733826,421.177856 
	C777.718628,420.648590 779.585327,420.065155 780.811462,419.215088 
	C799.867676,434.986664 822.396667,440.149536 846.345032,441.022827 
	C863.258667,441.639587 879.913086,440.072815 896.439087,434.500488 
	C896.389465,435.616486 896.285645,437.205109 895.441833,437.918854 
	C891.598389,441.169861 891.282715,445.498413 890.906189,450.034454 
	C890.687378,452.671692 889.518494,455.227722 888.800110,457.826630 
	C888.187988,460.041351 886.728821,462.470734 887.189697,464.444183 
	C888.309326,469.237579 883.723633,473.604645 886.659912,478.569824 
	C887.227539,479.529694 884.432678,482.080292 884.083130,484.055328 
	C883.044556,489.923309 883.637390,496.374573 881.388672,501.660187 
	C878.494202,508.463715 881.038635,516.161560 876.567017,522.564209 
	C875.041077,524.749084 875.500854,528.302673 874.992432,531.220276 
	C874.070007,536.513672 873.120544,541.802673 872.141602,547.085876 
	C871.840515,548.711182 871.141479,550.302856 871.086304,551.925659 
	C870.951782,555.875305 870.109985,559.366394 868.534546,563.178894 
	C866.821411,567.324646 868.040466,572.681885 868.038086,577.916260 
	C853.092651,583.544678 838.373108,589.899963 823.024048,593.736267 
	C797.402222,600.140137 771.142883,601.199158 744.434082,598.796326 
z"/>

</svg>